<mxfile host="Electron" modified="2024-06-26T12:53:03.833Z" agent="Mozilla/5.0 (Windows NT 10.0; Win64; x64) AppleWebKit/537.36 (KHTML, like Gecko) draw.io/24.5.3 Chrome/124.0.6367.207 Electron/30.0.6 Safari/537.36" etag="hlUKFQ-ZZHLi7l2TwrBO" version="24.5.3" type="device">
  <diagram id="C_46PfyABaP8grpVP24J" name="Page-1">
    <mxGraphModel dx="1098" dy="1196" grid="1" gridSize="10" guides="1" tooltips="1" connect="1" arrows="1" fold="1" page="1" pageScale="1" pageWidth="850" pageHeight="1100" background="#ffffff" math="0" shadow="0">
      <root>
        <object label="" feature-map="container:&#xa;  self: &#xa;    elements:&#xa;      argument-type: &quot;!Connection&quot;&#xa;      path: 2&#xa;" page-element="true" type="graph.Graph" id="0">
          <mxCell />
        </object>
        <mxCell id="1" parent="0" />
        <object label="" type="graph.Connection" feature-map="source: outgoingConnections&#xa;end: target" id="APVoGTpeWAH_w8hecpKW-12">
          <mxCell style="rounded=0;orthogonalLoop=1;jettySize=auto;html=1;exitX=0;exitY=1;exitDx=0;exitDy=0;" parent="1" source="APVoGTpeWAH_w8hecpKW-1" target="APVoGTpeWAH_w8hecpKW-3" edge="1">
            <mxGeometry relative="1" as="geometry" />
          </mxCell>
        </object>
        <object label="" type="graph.Connection" feature-map="source: outgoingConnections&#xa;end: target" id="APVoGTpeWAH_w8hecpKW-13">
          <mxCell style="edgeStyle=none;rounded=0;orthogonalLoop=1;jettySize=auto;html=1;exitX=1;exitY=1;exitDx=0;exitDy=0;" parent="1" source="APVoGTpeWAH_w8hecpKW-1" target="APVoGTpeWAH_w8hecpKW-11" edge="1">
            <mxGeometry relative="1" as="geometry" />
          </mxCell>
        </object>
        <object label="Solution" type="graph.Node" id="APVoGTpeWAH_w8hecpKW-1">
          <mxCell style="ellipse;whiteSpace=wrap;html=1;aspect=fixed;fillColor=#f5f5f5;fontColor=#333333;strokeColor=#666666;" parent="1" vertex="1">
            <mxGeometry x="230" y="150" width="50" height="50" as="geometry" />
          </mxCell>
        </object>
        <object label="" type="graph.Connection" feature-map="source: outgoingConnections&#xa;end: target" id="APVoGTpeWAH_w8hecpKW-14">
          <mxCell style="edgeStyle=none;rounded=0;orthogonalLoop=1;jettySize=auto;html=1;" parent="1" source="APVoGTpeWAH_w8hecpKW-3" target="APVoGTpeWAH_w8hecpKW-5" edge="1">
            <mxGeometry relative="1" as="geometry" />
          </mxCell>
        </object>
        <object label="" type="graph.Connection" feature-map="source: outgoingConnections&#xa;end: target" id="APVoGTpeWAH_w8hecpKW-15">
          <mxCell style="edgeStyle=none;rounded=0;orthogonalLoop=1;jettySize=auto;html=1;" parent="1" source="APVoGTpeWAH_w8hecpKW-3" target="APVoGTpeWAH_w8hecpKW-4" edge="1">
            <mxGeometry relative="1" as="geometry" />
          </mxCell>
        </object>
        <object label="=" type="graph.Node" id="APVoGTpeWAH_w8hecpKW-3">
          <mxCell style="ellipse;whiteSpace=wrap;html=1;aspect=fixed;fillColor=#dae8fc;strokeColor=#6c8ebf;" parent="1" vertex="1">
            <mxGeometry x="130" y="230" width="50" height="50" as="geometry" />
          </mxCell>
        </object>
        <object label="2.718" type="graph.Node" id="APVoGTpeWAH_w8hecpKW-4">
          <mxCell style="ellipse;whiteSpace=wrap;html=1;aspect=fixed;fillColor=#e1d5e7;strokeColor=#9673a6;" parent="1" vertex="1">
            <mxGeometry x="180" y="310" width="50" height="50" as="geometry" />
          </mxCell>
        </object>
        <object label="r" type="graph.Node" id="APVoGTpeWAH_w8hecpKW-5">
          <mxCell style="ellipse;whiteSpace=wrap;html=1;aspect=fixed;fillColor=#ffe6cc;strokeColor=#d79b00;" parent="1" vertex="1">
            <mxGeometry x="80" y="310" width="50" height="50" as="geometry" />
          </mxCell>
        </object>
        <object label="" type="graph.Connection" feature-map="source: outgoingConnections&#xa;end: target" id="APVoGTpeWAH_w8hecpKW-20">
          <mxCell style="edgeStyle=orthogonalEdgeStyle;rounded=0;orthogonalLoop=1;jettySize=auto;html=1;curved=1;dashed=1;strokeColor=#0000FF;" parent="1" source="APVoGTpeWAH_w8hecpKW-7" target="APVoGTpeWAH_w8hecpKW-5" edge="1">
            <mxGeometry relative="1" as="geometry">
              <Array as="points">
                <mxPoint x="455" y="540" />
                <mxPoint x="320" y="540" />
                <mxPoint x="105" y="540" />
              </Array>
            </mxGeometry>
          </mxCell>
        </object>
        <object label="r" type="graph.Node" id="APVoGTpeWAH_w8hecpKW-7">
          <mxCell style="ellipse;whiteSpace=wrap;html=1;aspect=fixed;fillColor=#bac8d3;strokeColor=#23445d;" parent="1" vertex="1">
            <mxGeometry x="430" y="390" width="50" height="50" as="geometry" />
          </mxCell>
        </object>
        <object label="" type="graph.Connection" feature-map="source: outgoingConnections&#xa;end: target" id="APVoGTpeWAH_w8hecpKW-18">
          <mxCell style="edgeStyle=none;rounded=0;orthogonalLoop=1;jettySize=auto;html=1;" parent="1" source="APVoGTpeWAH_w8hecpKW-9" target="dC14Jt2gQnxt7rOImr83-5" edge="1">
            <mxGeometry relative="1" as="geometry">
              <mxPoint x="368.2499735000795" y="393.80004239987215" as="targetPoint" />
            </mxGeometry>
          </mxCell>
        </object>
        <object label="" type="graph.Connection" feature-map="source: outgoingConnections&#xa;end: target" id="APVoGTpeWAH_w8hecpKW-19">
          <mxCell style="edgeStyle=none;rounded=0;orthogonalLoop=1;jettySize=auto;html=1;" parent="1" source="APVoGTpeWAH_w8hecpKW-9" target="APVoGTpeWAH_w8hecpKW-7" edge="1">
            <mxGeometry relative="1" as="geometry" />
          </mxCell>
        </object>
        <object label="*" type="graph.Node" id="APVoGTpeWAH_w8hecpKW-9">
          <mxCell style="ellipse;whiteSpace=wrap;html=1;aspect=fixed;fillColor=#d5e8d4;strokeColor=#82b366;" parent="1" vertex="1">
            <mxGeometry x="380" y="310" width="50" height="50" as="geometry" />
          </mxCell>
        </object>
        <object label="C" type="graph.Node" id="APVoGTpeWAH_w8hecpKW-10">
          <mxCell style="ellipse;whiteSpace=wrap;html=1;aspect=fixed;fillColor=#ffe6cc;strokeColor=#d79b00;" parent="1" vertex="1">
            <mxGeometry x="280" y="310" width="50" height="50" as="geometry" />
          </mxCell>
        </object>
        <object label="" type="graph.Connection" feature-map="source: outgoingConnections&#xa;end: target" id="APVoGTpeWAH_w8hecpKW-16">
          <mxCell style="edgeStyle=none;rounded=0;orthogonalLoop=1;jettySize=auto;html=1;" parent="1" source="APVoGTpeWAH_w8hecpKW-11" target="APVoGTpeWAH_w8hecpKW-10" edge="1">
            <mxGeometry relative="1" as="geometry" />
          </mxCell>
        </object>
        <object label="" type="graph.Connection" feature-map="source: outgoingConnections&#xa;end: target" id="APVoGTpeWAH_w8hecpKW-17">
          <mxCell style="edgeStyle=none;rounded=0;orthogonalLoop=1;jettySize=auto;html=1;" parent="1" source="APVoGTpeWAH_w8hecpKW-11" target="APVoGTpeWAH_w8hecpKW-9" edge="1">
            <mxGeometry relative="1" as="geometry" />
          </mxCell>
        </object>
        <object label="=" type="graph.Node" id="APVoGTpeWAH_w8hecpKW-11">
          <mxCell style="ellipse;whiteSpace=wrap;html=1;aspect=fixed;fillColor=#dae8fc;strokeColor=#6c8ebf;" parent="1" vertex="1">
            <mxGeometry x="330" y="230" width="50" height="50" as="geometry" />
          </mxCell>
        </object>
        <object label="Ï€" type="graph.Node" id="dC14Jt2gQnxt7rOImr83-1">
          <mxCell style="ellipse;whiteSpace=wrap;html=1;aspect=fixed;fillColor=#e1d5e7;strokeColor=#9673a6;" parent="1" vertex="1">
            <mxGeometry x="375" y="470" width="50" height="50" as="geometry" />
          </mxCell>
        </object>
        <object label="2" type="graph.Node" id="dC14Jt2gQnxt7rOImr83-2">
          <mxCell style="ellipse;whiteSpace=wrap;html=1;aspect=fixed;fillColor=#e1d5e7;strokeColor=#9673a6;" parent="1" vertex="1">
            <mxGeometry x="275" y="470" width="50" height="50" as="geometry" />
          </mxCell>
        </object>
        <object label="" type="graph.Connection" feature-map="source: outgoingConnections&#xa;end: target" id="dC14Jt2gQnxt7rOImr83-3">
          <mxCell style="edgeStyle=none;rounded=0;orthogonalLoop=1;jettySize=auto;html=1;" parent="1" source="dC14Jt2gQnxt7rOImr83-5" target="dC14Jt2gQnxt7rOImr83-2" edge="1">
            <mxGeometry relative="1" as="geometry" />
          </mxCell>
        </object>
        <object label="" type="graph.Connection" feature-map="source: outgoingConnections&#xa;end: target" id="dC14Jt2gQnxt7rOImr83-4">
          <mxCell style="edgeStyle=none;rounded=0;orthogonalLoop=1;jettySize=auto;html=1;" parent="1" source="dC14Jt2gQnxt7rOImr83-5" target="dC14Jt2gQnxt7rOImr83-1" edge="1">
            <mxGeometry relative="1" as="geometry" />
          </mxCell>
        </object>
        <object label="*" type="graph.Node" id="dC14Jt2gQnxt7rOImr83-5">
          <mxCell style="ellipse;whiteSpace=wrap;html=1;aspect=fixed;fillColor=#d5e8d4;strokeColor=#82b366;" parent="1" vertex="1">
            <mxGeometry x="325" y="390" width="50" height="50" as="geometry" />
          </mxCell>
        </object>
        <mxCell id="dC14Jt2gQnxt7rOImr83-6" value="Legend" style="align=left;fontSize=16;fontStyle=1;strokeColor=none;fillColor=none;fontColor=#4D4D4D;spacingTop=-8;resizable=0;" parent="1" vertex="1">
          <mxGeometry x="480" y="150" width="180" height="30" as="geometry" />
        </mxCell>
        <mxCell id="dC14Jt2gQnxt7rOImr83-7" value="" style="shape=table;html=1;whiteSpace=wrap;startSize=0;container=1;collapsible=0;childLayout=tableLayout;fillColor=none;align=left;spacingLeft=10;strokeColor=none;rounded=1;arcSize=11;fontColor=#FFFFFF;resizable=0;points=[[0.25,0,0],[0.5,0,0],[0.75,0,0],[1,0.25,0],[1,0.5,0],[1,0.75,0],[0.75,1,0],[0.5,1,0],[0.25,1,0],[0,0.75,0],[0,0.5,0],[0,0.25,0]];" parent="1" vertex="1">
          <mxGeometry x="480" y="180" width="180" height="180" as="geometry" />
        </mxCell>
        <mxCell id="dC14Jt2gQnxt7rOImr83-8" value="Statement list" style="shape=partialRectangle;html=1;whiteSpace=wrap;connectable=0;fillColor=#f5f5f5;top=0;left=0;bottom=0;right=0;overflow=hidden;pointerEvents=1;align=left;spacingLeft=10;strokeColor=none;fontColor=#000000;" parent="dC14Jt2gQnxt7rOImr83-7" vertex="1">
          <mxGeometry width="180" height="30" as="geometry" />
        </mxCell>
        <mxCell id="dC14Jt2gQnxt7rOImr83-9" value="Assignment" style="shape=partialRectangle;html=1;whiteSpace=wrap;connectable=0;fillColor=#dae8fc;top=0;left=0;bottom=0;right=0;overflow=hidden;pointerEvents=1;align=left;spacingLeft=10;fontColor=#000000;" parent="dC14Jt2gQnxt7rOImr83-7" vertex="1">
          <mxGeometry y="30" width="180" height="30" as="geometry" />
        </mxCell>
        <mxCell id="dC14Jt2gQnxt7rOImr83-10" value="Multiplication" style="shape=partialRectangle;html=1;whiteSpace=wrap;connectable=0;fillColor=#d5e8d4;top=0;left=0;bottom=0;right=0;overflow=hidden;pointerEvents=1;align=left;spacingLeft=10;fontColor=#000000;" parent="dC14Jt2gQnxt7rOImr83-7" vertex="1">
          <mxGeometry y="60" width="180" height="30" as="geometry" />
        </mxCell>
        <mxCell id="dC14Jt2gQnxt7rOImr83-11" value="Constant/Literal" style="shape=partialRectangle;html=1;whiteSpace=wrap;connectable=0;fillColor=#e1d5e7;top=0;left=0;bottom=0;right=0;overflow=hidden;pointerEvents=1;align=left;spacingLeft=10;fontColor=#000000;" parent="dC14Jt2gQnxt7rOImr83-7" vertex="1">
          <mxGeometry y="90" width="180" height="30" as="geometry" />
        </mxCell>
        <mxCell id="dC14Jt2gQnxt7rOImr83-12" value="Variable" style="shape=partialRectangle;html=1;whiteSpace=wrap;connectable=0;fillColor=#ffe6cc;top=0;left=0;bottom=0;right=0;overflow=hidden;pointerEvents=1;align=left;spacingLeft=10;fontColor=#000000;" parent="dC14Jt2gQnxt7rOImr83-7" vertex="1">
          <mxGeometry y="120" width="180" height="30" as="geometry" />
        </mxCell>
        <mxCell id="dC14Jt2gQnxt7rOImr83-13" value="Variable reference" style="shape=partialRectangle;html=1;whiteSpace=wrap;connectable=0;fillColor=#bac8d3;top=0;left=0;bottom=0;right=0;overflow=hidden;pointerEvents=1;align=left;spacingLeft=10;strokeColor=#23445d;" parent="dC14Jt2gQnxt7rOImr83-7" vertex="1">
          <mxGeometry y="150" width="180" height="30" as="geometry" />
        </mxCell>
      </root>
    </mxGraphModel>
  </diagram>
</mxfile>
